<svg xmlns="http://www.w3.org/2000/svg" viewBox="0 0 512 512">
  <rect width="512" height="512" rx="96" fill="#020712"/>
  <path d="M96 64h320l32 32H64Z" fill="#10224a" opacity=".6"/>
  <path d="M416 64l32 32v320l-32 32Z" fill="#030b1f" opacity=".52"/>
  <path d="M64 416h384l-32 32H96Z" fill="#010615" opacity=".48"/>
  <path d="M64 64L32 96v320l32 32Z" fill="#0b1838" opacity=".22"/>
  <rect x="64" y="64" width="384" height="384" rx="64" fill="#071229" stroke="#00e0ff" stroke-width="10"/>
  <circle cx="186" cy="236" r="34" fill="#00e0ff"/>
  <circle cx="326" cy="236" r="34" fill="#7c5cff"/>
  <path fill="#00e0ff" opacity="0"/>
  <path fill="#7c5cff" opacity="0"/>
  <path d="M160 334h192" stroke="#dfe9ff" stroke-width="28" stroke-linecap="round"/>
  <path d="M160 104 Q256 94 352 104" stroke="#dfe9ff" stroke-width="7" stroke-linecap="round" fill="none" opacity=".16"/>
  <path d="M186 126 Q256 119 326 126" stroke="#dfe9ff" stroke-width="5" stroke-linecap="round" fill="none" opacity=".1"/>
  <path d="M124 150h104" stroke="#00e0ff" stroke-width="16" stroke-linecap="round" opacity=".72"/>
  <path d="M284 150h104" stroke="#7c5cff" stroke-width="16" stroke-linecap="round" opacity=".72"/>
</svg>
